REM DIRINDEX 1\3,1\2\4,1\2\5,1\2\6
REM DIRNAME cjc137,folder01,folder02,folder03,folder04,folder05
TITLE ""
FILE "017.mp3" MP3
  TRACK 01 AUDIO
    TITLE "4:cjc137_0675"
    INDEX 01 00:00:00
  TRACK 02 AUDIO
    TITLE "0:"
    INDEX 01 00:01:03
  TRACK 03 AUDIO
    TITLE "6:cjc137_0676"
    INDEX 01 00:01:11
  TRACK 04 AUDIO
    TITLE "0:"
    INDEX 01 00:01:71
  TRACK 05 AUDIO
    TITLE "5:cjc137_0677"
    INDEX 01 00:02:02
  TRACK 06 AUDIO
    TITLE "0:"
    INDEX 01 00:03:06
  TRACK 07 AUDIO
    TITLE "4:cjc137_0678"
    INDEX 01 00:04:13
  TRACK 08 AUDIO
    TITLE "0:"
    INDEX 01 00:05:24
  TRACK 09 AUDIO
    TITLE "6:cjc137_0679"
    INDEX 01 00:05:28
  TRACK 10 AUDIO
    TITLE "0:"
    INDEX 01 00:06:47
  TRACK 11 AUDIO
    TITLE "5:cjc137_0680"
    INDEX 01 00:06:55
  TRACK 12 AUDIO
    TITLE "0:"
    INDEX 01 00:07:66
  TRACK 13 AUDIO
    TITLE "4:cjc137_0681"
    INDEX 01 00:08:72
  TRACK 14 AUDIO
    TITLE "0:"
    INDEX 01 00:10:08
  TRACK 15 AUDIO
    TITLE "6:cjc137_0682"
    INDEX 01 00:10:18
  TRACK 16 AUDIO
    TITLE "0:"
    INDEX 01 00:11:21
  TRACK 17 AUDIO
    TITLE "5:cjc137_0683"
    INDEX 01 00:11:29
  TRACK 18 AUDIO
    TITLE "0:"
    INDEX 01 00:12:42
  TRACK 19 AUDIO
    TITLE "4:cjc137_0684"
    INDEX 01 00:13:49
  TRACK 20 AUDIO
    TITLE "0:"
    INDEX 01 00:14:47
  TRACK 21 AUDIO
    TITLE "6:cjc137_0685"
    INDEX 01 00:14:56
  TRACK 22 AUDIO
    TITLE "0:"
    INDEX 01 00:15:62
  TRACK 23 AUDIO
    TITLE "5:cjc137_0686"
    INDEX 01 00:15:68
  TRACK 24 AUDIO
    TITLE "0:"
    INDEX 01 00:16:65
  TRACK 25 AUDIO
    TITLE "4:cjc137_0687"
    INDEX 01 00:18:01
  TRACK 26 AUDIO
    TITLE "0:"
    INDEX 01 00:19:05
  TRACK 27 AUDIO
    TITLE "6:cjc137_0688"
    INDEX 01 00:19:15
  TRACK 28 AUDIO
    TITLE "0:"
    INDEX 01 00:20:14
  TRACK 29 AUDIO
    TITLE "5:cjc137_0689"
    INDEX 01 00:20:20
  TRACK 30 AUDIO
    TITLE "0:"
    INDEX 01 00:21:27
  TRACK 31 AUDIO
    TITLE "4:cjc137_0690"
    INDEX 01 00:22:36
  TRACK 32 AUDIO
    TITLE "0:"
    INDEX 01 00:23:42
  TRACK 33 AUDIO
    TITLE "6:cjc137_0691"
    INDEX 01 00:23:50
  TRACK 34 AUDIO
    TITLE "0:"
    INDEX 01 00:24:69
  TRACK 35 AUDIO
    TITLE "5:cjc137_0692"
    INDEX 01 00:25:03
  TRACK 36 AUDIO
    TITLE "0:"
    INDEX 01 00:26:11
  TRACK 37 AUDIO
    TITLE "4:cjc137_0693"
    INDEX 01 00:27:16
  TRACK 38 AUDIO
    TITLE "0:"
    INDEX 01 00:28:15
  TRACK 39 AUDIO
    TITLE "6:cjc137_0694"
    INDEX 01 00:28:23
  TRACK 40 AUDIO
    TITLE "0:"
    INDEX 01 00:29:29
  TRACK 41 AUDIO
    TITLE "5:cjc137_0695"
    INDEX 01 00:29:36
  TRACK 42 AUDIO
    TITLE "0:"
    INDEX 01 00:30:32
  TRACK 43 AUDIO
    TITLE "4:cjc137_0696"
    INDEX 01 00:31:45
  TRACK 44 AUDIO
    TITLE "0:"
    INDEX 01 00:32:50
  TRACK 45 AUDIO
    TITLE "6:cjc137_0697"
    INDEX 01 00:32:58
  TRACK 46 AUDIO
    TITLE "0:"
    INDEX 01 00:33:56
  TRACK 47 AUDIO
    TITLE "5:cjc137_0698"
    INDEX 01 00:33:64
  TRACK 48 AUDIO
    TITLE "0:"
    INDEX 01 00:34:69
  TRACK 49 AUDIO
    TITLE "4:cjc137_0699"
    INDEX 01 00:36:01
  TRACK 50 AUDIO
    TITLE "0:"
    INDEX 01 00:37:12
  TRACK 51 AUDIO
    TITLE "6:cjc137_0700"
    INDEX 01 00:37:20
  TRACK 52 AUDIO
    TITLE "0:"
    INDEX 01 00:38:51
  TRACK 53 AUDIO
    TITLE "5:cjc137_0701"
    INDEX 01 00:38:57
  TRACK 54 AUDIO
    TITLE "0:"
    INDEX 01 00:39:68
  TRACK 55 AUDIO
    TITLE "4:cjc137_0702"
    INDEX 01 00:41:02
  TRACK 56 AUDIO
    TITLE "0:"
    INDEX 01 00:42:02
  TRACK 57 AUDIO
    TITLE "6:cjc137_0703"
    INDEX 01 00:42:16
  TRACK 58 AUDIO
    TITLE "0:"
    INDEX 01 00:43:11
  TRACK 59 AUDIO
    TITLE "5:cjc137_0704"
    INDEX 01 00:43:19
  TRACK 60 AUDIO
    TITLE "0:"
    INDEX 01 00:44:20
  TRACK 61 AUDIO
    TITLE "4:cjc137_0705"
    INDEX 01 00:45:33
  TRACK 62 AUDIO
    TITLE "0:"
    INDEX 01 00:46:41
  TRACK 63 AUDIO
    TITLE "6:cjc137_0706"
    INDEX 01 00:46:49
  TRACK 64 AUDIO
    TITLE "0:"
    INDEX 01 00:47:48
  TRACK 65 AUDIO
    TITLE "5:cjc137_0707"
    INDEX 01 00:47:56
  TRACK 66 AUDIO
    TITLE "0:"
    INDEX 01 00:48:63
  TRACK 67 AUDIO
    TITLE "4:cjc137_0708"
    INDEX 01 00:49:70
  TRACK 68 AUDIO
    TITLE "0:"
    INDEX 01 00:51:20
  TRACK 69 AUDIO
    TITLE "6:cjc137_0709"
    INDEX 01 00:51:28
  TRACK 70 AUDIO
    TITLE "0:"
    INDEX 01 00:52:41
  TRACK 71 AUDIO
    TITLE "5:cjc137_0710"
    INDEX 01 00:52:47
  TRACK 72 AUDIO
    TITLE "0:"
    INDEX 01 00:53:74
  TRACK 73 AUDIO
    TITLE "4:cjc137_0711"
    INDEX 01 00:55:06
  TRACK 74 AUDIO
    TITLE "0:"
    INDEX 01 00:56:08
  TRACK 75 AUDIO
    TITLE "6:cjc137_0712"
    INDEX 01 00:56:16
  TRACK 76 AUDIO
    TITLE "0:"
    INDEX 01 00:57:29
  TRACK 77 AUDIO
    TITLE "5:cjc137_0713"
    INDEX 01 00:57:33
  TRACK 78 AUDIO
    TITLE "0:"
    INDEX 01 00:58:32
  TRACK 79 AUDIO
    TITLE "4:cjc137_0714"
    INDEX 01 00:59:41
  TRACK 80 AUDIO
    TITLE "0:"
    INDEX 01 01:00:57
  TRACK 81 AUDIO
    TITLE "6:cjc137_0715"
    INDEX 01 01:00:66
  TRACK 82 AUDIO
    TITLE "0:"
    INDEX 01 01:01:62
  TRACK 83 AUDIO
    TITLE "5:cjc137_0716"
    INDEX 01 01:01:72
  TRACK 84 AUDIO
    TITLE "0:"
    INDEX 01 01:03:08
